<?xml version="1.0" standalone="no"?>
<!DOCTYPE svg PUBLIC "-//W3C//DTD SVG 20010904//EN"
 "http://www.w3.org/TR/2001/REC-SVG-20010904/DTD/svg10.dtd">
<svg version="1.0" xmlns="http://www.w3.org/2000/svg"
 width="1200.000000pt" height="1200.000000pt" viewBox="0 0 1200.000000 1200.000000"
 preserveAspectRatio="xMidYMid meet">
<metadata>
Created by potrace 1.14, written by Peter Selinger 2001-2017
</metadata>
<g transform="translate(0.000000,1200.000000) scale(0.100000,-0.100000)"
fill="#000000" stroke="none">
<path d="M4707 10574 c-1 -1 -67 -5 -147 -8 -160 -7 -242 -12 -310 -20 -24 -3
-65 -8 -90 -11 -78 -9 -107 -14 -167 -25 -32 -5 -71 -12 -88 -15 -16 -3 -50
-10 -75 -15 -25 -6 -55 -12 -68 -15 -12 -2 -26 -6 -30 -9 -8 -5 -25 -9 -89
-21 -42 -8 -257 -79 -353 -116 -47 -19 -88 -32 -92 -31 -5 1 -8 -3 -8 -8 0 -6
-6 -10 -12 -10 -13 0 -299 -139 -308 -150 -3 -3 -23 -17 -45 -30 -102 -61
-205 -132 -205 -140 0 -6 -3 -9 -7 -8 -7 3 -70 -41 -99 -67 -6 -5 -30 -26 -54
-45 -153 -124 -331 -307 -480 -493 -8 -10 -27 -33 -42 -50 -15 -18 -28 -35
-28 -39 0 -4 -6 -13 -13 -20 -7 -7 -28 -35 -47 -63 -19 -27 -37 -51 -42 -53
-4 -2 -8 -10 -8 -18 0 -8 -4 -14 -9 -14 -5 0 -14 -13 -21 -30 -7 -16 -15 -30
-19 -30 -3 0 -17 -20 -31 -45 -14 -25 -28 -45 -32 -45 -5 0 -8 -7 -8 -15 0 -8
-4 -15 -9 -15 -5 0 -11 -8 -14 -17 -4 -10 -18 -36 -32 -58 -13 -22 -28 -47
-31 -55 -4 -8 -13 -22 -19 -30 -7 -8 -25 -37 -39 -65 -15 -27 -31 -57 -37 -65
-29 -45 -149 -275 -149 -285 0 -8 -4 -15 -9 -17 -7 -2 -203 -391 -206 -408 0
-3 -12 -28 -27 -57 -14 -28 -24 -54 -21 -57 4 -3 1 -6 -5 -6 -6 0 -14 -10 -18
-22 -3 -12 -27 -64 -51 -117 -25 -53 -45 -98 -46 -101 -1 -3 -16 -35 -34 -73
-18 -37 -33 -72 -33 -77 0 -6 -5 -10 -12 -10 -6 0 -9 -3 -5 -6 3 -4 -5 -28
-18 -55 -14 -27 -25 -55 -25 -64 0 -8 -4 -15 -10 -15 -5 0 -10 -6 -10 -13 0
-7 -22 -63 -50 -125 -27 -62 -46 -112 -43 -112 3 0 1 -6 -5 -13 -6 -7 -20 -39
-33 -72 -12 -33 -26 -71 -32 -85 -6 -14 -11 -27 -12 -30 -1 -3 -5 -14 -9 -25
-50 -129 -69 -181 -91 -245 -14 -41 -28 -82 -31 -90 -3 -8 -5 -16 -5 -17 0 -2
-8 -23 -19 -48 -11 -25 -19 -48 -19 -50 0 -6 -47 -157 -58 -185 -4 -8 -7 -17
-8 -20 0 -3 -9 -32 -19 -65 -10 -33 -19 -67 -21 -75 -2 -8 -9 -28 -15 -45 -6
-16 -13 -37 -15 -45 -6 -25 -45 -161 -65 -230 -11 -36 -22 -76 -24 -90 -3 -14
-21 -88 -41 -165 -19 -77 -37 -149 -39 -160 -2 -11 -11 -51 -20 -90 -17 -74
-24 -112 -32 -160 -3 -16 -7 -37 -10 -45 -3 -8 -8 -33 -10 -55 -3 -22 -10 -56
-14 -75 -5 -19 -12 -60 -15 -90 -4 -30 -8 -58 -11 -62 -3 -4 -7 -27 -9 -50 -2
-24 -7 -63 -10 -88 -21 -157 -28 -265 -29 -445 -1 -151 6 -302 15 -312 2 -3 1
-2 13 -53 47 -197 193 -285 339 -202 31 18 63 41 69 52 7 11 18 20 25 20 7 0
13 4 13 8 0 5 8 17 18 28 10 10 33 42 52 69 19 28 38 52 41 55 7 6 16 20 104
172 32 57 62 105 65 108 3 3 17 30 32 60 15 30 53 102 84 160 32 58 76 141 99
185 38 73 106 203 173 330 15 28 29 52 32 55 4 3 12 21 20 40 8 19 17 37 20
40 4 3 22 34 40 70 19 36 40 73 48 83 9 9 12 17 8 17 -4 0 1 12 12 28 10 15
40 65 67 112 26 47 56 101 68 120 11 19 31 55 45 80 13 25 29 50 34 57 19 24
78 126 78 134 0 5 5 9 10 9 6 0 10 4 10 9 0 10 117 201 129 211 3 3 12 15 19
28 31 55 38 67 54 86 10 11 18 23 18 28 0 4 9 18 20 30 10 13 19 27 19 32 0 5
4 12 9 15 5 3 40 51 78 106 37 55 72 105 76 110 5 6 28 37 53 70 75 102 101
135 211 275 58 74 111 140 118 145 6 6 35 39 65 75 30 36 62 72 70 81 9 9 54
58 101 109 139 152 362 370 480 470 14 11 36 31 50 43 40 36 229 188 295 236
33 25 62 47 65 50 3 3 13 11 22 16 9 6 70 46 135 91 104 71 339 216 415 255
183 95 401 199 418 199 5 0 10 5 10 10 0 6 5 10 11 10 7 0 69 22 138 49 127
50 162 63 171 66 3 1 65 20 137 44 73 23 136 43 140 43 5 0 18 4 31 9 12 5 33
11 45 13 12 3 47 12 77 21 30 8 71 18 90 21 19 3 38 8 41 10 3 2 19 5 35 8 16
3 74 15 129 26 129 27 168 34 260 44 28 3 61 8 75 11 14 3 45 8 70 10 121 12
158 16 195 20 215 24 878 25 1083 1 20 -3 73 -8 117 -12 117 -10 130 -12 130
-14 0 -1 20 -3 45 -5 91 -8 169 -19 335 -47 66 -11 131 -21 145 -23 14 -1 25
-4 25 -5 0 -2 18 -6 65 -13 41 -7 225 -44 290 -59 25 -5 52 -11 60 -12 8 -2
35 -9 60 -15 25 -7 52 -14 60 -16 8 -2 69 -17 135 -34 66 -18 127 -33 136 -35
48 -12 267 -77 399 -118 157 -49 184 -58 200 -65 8 -3 20 -7 25 -8 6 0 17 -4
25 -7 8 -4 44 -16 80 -28 36 -12 74 -25 85 -30 11 -5 47 -18 80 -29 67 -22 97
-33 235 -86 52 -20 100 -38 105 -39 6 -2 21 -8 35 -13 14 -6 106 -43 205 -83
99 -39 194 -78 210 -85 17 -8 59 -26 95 -40 36 -15 81 -34 100 -42 19 -8 44
-19 55 -23 11 -4 38 -16 60 -25 22 -10 55 -24 73 -31 17 -8 47 -20 65 -28 60
-26 319 -128 331 -130 6 -1 16 -4 21 -7 26 -16 122 -31 167 -27 81 8 112 57
97 156 -2 12 -6 22 -10 22 -4 0 -11 10 -14 21 -7 22 -179 199 -245 253 -86 70
-379 286 -388 286 -6 0 -12 4 -14 8 -2 7 -213 149 -328 223 -8 5 -52 33 -97
62 -45 28 -95 59 -110 68 -15 10 -59 35 -97 58 -37 23 -72 41 -76 41 -5 0 -10
4 -12 8 -3 9 -238 144 -378 218 -19 11 -37 21 -40 24 -3 3 -21 13 -40 23 -19
11 -87 46 -150 80 -63 33 -146 77 -185 96 -38 20 -71 39 -73 44 -2 4 -9 7 -16
7 -15 0 -145 65 -166 82 -8 7 -17 12 -20 11 -3 -1 -45 18 -95 42 -129 62 -249
119 -255 121 -3 1 -15 5 -27 9 -13 4 -23 11 -23 16 0 5 -6 9 -14 9 -8 0 -50
17 -93 37 -43 20 -80 37 -83 38 -3 1 -17 5 -32 9 -16 5 -28 12 -28 17 0 5 -4
9 -9 9 -5 0 -92 34 -193 75 -218 90 -225 93 -263 111 -16 8 -39 16 -50 18 -20
4 -135 50 -167 67 -10 5 -22 9 -27 9 -5 0 -22 5 -38 12 -15 6 -31 12 -35 13
-5 2 -9 3 -10 5 -2 1 -11 3 -22 5 -10 2 -23 8 -29 14 -6 6 -19 11 -29 11 -11
0 -32 7 -48 15 -16 8 -37 17 -47 18 -10 2 -25 7 -33 10 -28 11 -225 79 -240
82 -8 2 -64 20 -125 39 -60 20 -118 36 -127 36 -9 0 -19 4 -22 8 -3 5 -31 14
-62 21 -32 7 -83 22 -115 32 -31 10 -65 20 -75 22 -11 2 -26 7 -34 10 -17 6
-96 26 -125 31 -11 3 -45 11 -76 20 -30 8 -66 17 -80 19 -13 2 -31 7 -39 10
-12 5 -162 37 -285 61 -11 2 -33 8 -50 12 -16 4 -41 8 -55 10 -14 1 -25 3 -25
4 0 1 -9 3 -20 4 -11 2 -33 6 -50 9 -16 4 -50 9 -75 13 -24 3 -47 7 -50 9 -3
2 -32 6 -65 9 -33 4 -67 9 -75 11 -8 3 -35 7 -60 9 -25 3 -65 8 -90 11 -73 10
-199 22 -315 31 -86 6 -495 21 -498 18z"/>
<path d="M9387 2853 c-1 -1 -191 -4 -422 -7 -535 -8 -812 -15 -1295 -32 -102
-3 -217 -7 -257 -8 -40 -1 -75 -5 -79 -8 -3 -4 -16 -3 -29 2 -13 5 -26 6 -29
3 -3 -3 -45 -7 -93 -8 -95 -3 -315 -14 -403 -20 -30 -2 -102 -7 -160 -10 -58
-3 -134 -8 -170 -10 -36 -3 -96 -7 -135 -9 -38 -3 -104 -8 -145 -11 -41 -3
-102 -8 -135 -10 -151 -11 -203 -15 -240 -19 -22 -3 -85 -8 -140 -12 -55 -3
-108 -8 -118 -10 -9 -1 -54 -6 -100 -9 -112 -9 -164 -14 -217 -20 -47 -5 -136
-14 -205 -19 -22 -2 -69 -6 -105 -10 -36 -4 -85 -9 -110 -11 -64 -7 -161 -17
-190 -20 -38 -5 -137 -14 -210 -21 -36 -3 -78 -8 -95 -11 -16 -2 -50 -6 -75
-8 -48 -4 -133 -13 -190 -20 -19 -2 -62 -7 -95 -10 -33 -3 -76 -7 -95 -10 -19
-2 -57 -6 -85 -9 -27 -3 -77 -9 -110 -12 -33 -4 -71 -8 -85 -9 -34 -4 -148
-16 -185 -21 -16 -2 -54 -6 -83 -9 -29 -2 -65 -7 -80 -9 -15 -3 -54 -7 -87
-11 -33 -3 -76 -8 -95 -10 -47 -6 -144 -16 -200 -20 -25 -2 -45 -4 -45 -5 0
-1 -11 -3 -25 -4 -14 -2 -47 -6 -75 -9 -27 -3 -79 -9 -115 -12 -36 -4 -76 -9
-90 -11 -14 -3 -52 -7 -85 -10 -33 -3 -71 -7 -85 -9 -26 -5 -152 -18 -182 -19
-10 0 -18 -3 -18 -6 0 -3 -19 -6 -43 -6 -52 -2 -211 -18 -292 -30 -22 -3 -56
-7 -75 -9 -119 -13 -148 -17 -175 -21 -16 -2 -50 -6 -75 -9 -94 -9 -205 -22
-265 -30 -16 -2 -52 -7 -80 -10 -27 -4 -63 -8 -80 -10 -16 -3 -47 -7 -67 -9
-21 -3 -53 -7 -70 -10 -18 -3 -53 -8 -78 -11 -25 -2 -56 -7 -70 -9 -14 -3 -45
-7 -70 -10 -25 -3 -56 -8 -70 -11 -14 -3 -38 -7 -55 -10 -71 -10 -217 -45
-237 -56 -10 -5 -22 -9 -28 -9 -20 0 -92 -69 -84 -81 2 -4 0 -10 -5 -13 -20
-13 10 -91 49 -124 38 -32 196 -97 285 -117 11 -2 47 -11 81 -19 34 -8 72 -17
85 -20 13 -2 56 -11 94 -19 68 -15 113 -24 165 -32 14 -2 36 -6 50 -8 14 -3
48 -8 75 -12 28 -4 59 -9 70 -11 43 -9 82 -14 126 -18 26 -2 51 -6 57 -10 5
-3 25 -6 43 -6 71 -2 99 -5 99 -11 0 -3 19 -6 43 -7 23 0 56 -3 72 -6 17 -3
62 -9 100 -12 39 -3 81 -8 95 -10 14 -3 52 -7 85 -9 33 -2 78 -7 100 -9 22 -3
75 -8 118 -12 43 -3 99 -8 125 -10 140 -12 548 -37 634 -38 38 -1 68 -3 68 -6
0 -9 325 -14 935 -14 674 -1 881 6 1240 39 33 3 80 8 105 10 25 2 45 5 45 5 0
1 18 3 40 5 86 9 151 16 180 21 17 3 55 7 85 9 30 2 55 5 55 6 0 1 14 3 30 4
17 2 30 4 30 5 0 2 19 5 105 13 30 4 66 8 80 11 14 2 50 7 81 11 31 3 66 7 76
9 11 3 42 7 69 10 83 11 108 14 139 19 27 5 76 12 160 23 17 2 41 5 55 8 14 2
52 7 85 11 64 8 90 13 90 15 0 1 22 3 49 6 27 2 60 6 75 9 14 3 40 8 56 10 17
2 46 7 65 10 19 3 55 8 80 11 92 11 106 13 130 18 41 8 221 35 275 41 28 4 57
8 65 10 8 2 34 6 58 9 75 10 117 16 137 20 18 3 56 9 135 21 14 3 45 7 70 10
25 3 52 7 60 10 8 2 35 6 60 9 44 6 70 10 140 22 19 3 49 8 65 10 65 8 111 14
135 19 25 5 85 14 135 21 69 9 102 14 135 19 19 3 46 8 60 10 33 4 109 16 140
21 14 2 43 6 65 9 22 3 51 8 65 12 14 3 29 5 33 4 5 -1 34 3 65 8 32 6 73 13
92 16 19 3 46 7 60 10 14 2 50 7 80 11 30 3 57 7 60 9 3 2 33 7 65 10 33 4 67
11 76 16 9 4 19 6 22 3 3 -3 31 -1 63 5 84 15 114 20 159 25 22 3 49 8 60 10
11 2 43 7 70 10 28 4 57 9 65 11 8 2 35 6 60 9 25 3 54 8 65 10 22 4 158 25
202 31 16 2 30 5 33 6 3 1 10 3 15 4 43 6 116 17 145 21 19 3 46 8 60 10 14 3
36 7 50 9 14 1 54 8 90 14 36 6 79 13 95 15 17 2 30 5 30 6 0 1 15 3 33 6 17
2 47 6 65 8 17 3 32 5 32 6 0 1 11 3 25 6 14 2 39 6 55 9 17 3 46 8 65 10 19
3 49 8 65 12 17 3 44 7 62 8 17 2 35 5 40 8 4 3 33 8 63 12 30 4 57 8 60 10 3
2 24 6 46 9 22 4 51 9 64 12 14 2 36 6 50 9 42 6 87 15 163 31 39 8 83 17 97
19 14 3 45 9 70 16 25 6 50 12 55 13 165 40 225 86 210 165 -6 32 -53 89 -77
92 -12 2 -27 6 -33 9 -7 3 -11 4 -75 18 -102 22 -113 23 -265 37 -38 3 -92 8
-120 11 -64 6 -224 14 -345 17 -52 2 -101 6 -107 10 -8 5 -13 3 -13 -3 0 -6
-5 -8 -10 -5 -6 4 -120 9 -253 12 -230 4 -1307 10 -1310 6z"/>
</g>
</svg>
